<svg xmlns="http://www.w3.org/2000/svg" xmlns:xlink="http://www.w3.org/1999/xlink" width="50px" height="50px" viewBox="-3 -3 56 56" version="1.1"><g id="deeditor_bgCarrier" stroke-width="0">
  <rect id="dee_c_e" x="-3" y="-3" width="56" height="56" rx="38.4" fill="#5350c4" strokewidth="0"/>
</g>
<g id="surface1">
<path style=" stroke:none;fill-rule:evenodd;fill:#ffffff;fill-opacity:1;" d="M 26.5 12.5 L 39 12.5 L 40.5625 14.0625 L 40.5625 20.40625 L 42.1875 20.40625 L 43.75 21.96875 L 43.75 25 L 42.1875 26.5625 L 40.5625 26.5625 L 40.5625 35.9375 L 39 37.5 L 29.25 37.5 L 21.4375 46.125 L 18.75 45 L 18.75 37.5 L 10.9375 37.5 L 9.375 35.5 L 9.375 26.5625 L 7.8125 26.5625 L 6.25 25 L 6.25 21.96875 L 7.8125 20.40625 L 9.375 20.40625 L 9.375 13.625 L 11.03125 12.5 L 23.53125 12.5 L 23.53125 8.9375 C 22.535156 8.40625 21.902344 7.378906 21.875 6.25 C 21.875 4.523438 23.273438 3.125 25 3.125 C 26.726562 3.125 28.125 4.523438 28.125 6.25 C 28.074219 7.339844 27.457031 8.320312 26.5 8.84375 Z M 37.5 25 L 37.5 15.625 L 12.5 15.625 L 12.5 33.9375 L 20.3125 34.375 L 21.875 34.375 L 21.875 41.21875 L 27.5 34.84375 L 28.59375 34.375 L 37.5 34.375 Z M 30.875 26.59375 C 29.703125 27.765625 28.214844 28.570312 26.59375 28.90625 L 26.59375 28.875 C 23.84375 29.402344 21.015625 28.535156 19.03125 26.5625 L 16.84375 28.78125 C 17.90625 29.84375 19.171875 30.679688 20.5625 31.25 C 21.96875 31.835938 23.476562 32.144531 25 32.15625 C 28.019531 32.136719 30.914062 30.9375 33.0625 28.8125 Z M 20.28125 20.3125 L 17.15625 20.3125 L 17.15625 23.4375 L 20.28125 23.4375 Z M 29.65625 20.3125 L 32.78125 20.3125 L 32.78125 23.4375 L 29.65625 23.4375 Z M 29.65625 20.3125 "/>
</g>
</svg>